<?xml version="1.0" encoding="utf-8"?>
<!-- Generator: Adobe Illustrator 18.0.0, SVG Export Plug-In . SVG Version: 6.00 Build 0)  -->
<!DOCTYPE svg PUBLIC "-//W3C//DTD SVG 1.1//EN" "http://www.w3.org/Graphics/SVG/1.1/DTD/svg11.dtd">
<svg version="1.1"
	 id="svg2" xmlns:svg="http://www.w3.org/2000/svg" xmlns:cc="http://creativecommons.org/ns#" xmlns:dc="http://purl.org/dc/elements/1.1/" xmlns:rdf="http://www.w3.org/1999/02/22-rdf-syntax-ns#"
	 xmlns="http://www.w3.org/2000/svg" xmlns:xlink="http://www.w3.org/1999/xlink" x="0px" y="0px" viewBox="0 0 612 792"
	 enable-background="new 0 0 612 792" xml:space="preserve">
<g>
	<path fill="#333333" d="M541.8,321c-19.1-24.1-56.3-36.7-113.9-38.6L218.4,271c10.2-39.6,15.2-65.3,15.2-78.3
		c0-25-3.3-47.9-9.4-64.5c-11.8-32.3-31.5-39.1-46-39.1c-40.1,0-71.7,0-71.7,55.3c0,28.9-14.8,66.7-27.8,100l-0.7,1.9
		c-10.6,27.2-19.7,50.6-19.7,67.2c0,8.3,0.2,17.1,0.6,25.6l-1.3,218c0,54.1,6.8,84.8,23.3,105.9c19.2,24.5,51.4,35.5,104.4,35.5h239
		c42.3,0,76.8-26.1,81.9-62c0.9-6.4,28-151.2,44.2-237.7l3-16.3C558.5,357.9,554.6,337.3,541.8,321z M88.8,338.1
		c-0.4-8.1-0.6-16.6-0.6-24.6c0-11,9.2-34.5,18.1-57.1l0.3-0.9c14-35.9,29.9-76.5,29.9-111.1c0-19.1,4.1-21.4,5.5-22.1
		c5.7-3.2,19.8-3.2,36.2-3.2c9.2,0,14.3,10,17.7,18.8l0.2,0.6c4.9,13.6,7.6,32.8,7.6,54.2c0,6.7-2.5,27.1-18.9,88.4L180,299
		l246.6,13.4l0.4,0c47.6,1.5,78.3,10.6,91.3,27.2c7.1,9.1,9,21.2,5.7,37l-0.1,0.5v0.2c-2.3,12.1-46.1,245.8-47.4,255
		c-3,21-25,36.2-52.3,36.2h-239c-43,0-67.1-7-80.4-23.6c-14.3-17.7-17.3-47.9-17.3-87.7l1.3-218.3L88.8,338.1z"/>
	<path fill="#333333" d="M280.3,420.3c-8.1,9.9-12.4,21.3-13,34c-1.3,33.4,19.3,51.7,25.5,56.5c-9.5,10.9-14.4,22.6-14.5,34.7
		c-0.1,15.6,7,30.5,21,44.1c-3.5,3.9-6.1,8-7.8,12.6c-6.3,16.9-2.7,37.9,8.6,51.1c6.7,7.6,15.4,11.8,24.7,11.8
		c2.4,0,4.6-0.2,6.7-0.7c4.2-0.9,7.7-3.3,9.9-6.8c2.3-3.5,3.1-7.6,2.2-11.8c-1.6-7.2-7.9-12.3-15.3-12.3c-0.9,0-2.1,0-3.3,0.3
		c-0.1,0-0.4-0.1-1.1-1c-3.4-4-5.5-13-2.9-19.7c1.2-3.3,5.9-6.7,10-8.6c0.2-0.1,0.5-0.2,0.7-0.3c0.9-0.5,1.8-0.9,4.9-1.7l119.6,3.6
		l0.6,0c14.1,0,15.5-9.4,15.6-12.2c0.2-4.5-1.6-7.4-3.1-9.1c-3.3-3.6-8.3-4.4-11.9-4.5l-129.8-6.5c-6.8-5.1-18-16.3-17.9-27.3
		c0.2-11,7.7-18.9,15.5-25.2l150.2,6.7l1,0c8.3,0,15-6.3,15.6-14.5c0.3-4.2-1.1-8.4-3.9-11.4c-2.8-3.1-6.6-4.9-10.8-5.2l-159.1-6.2
		l-8.4-6.4c-5.4-5.4-11.7-14.7-11.1-28.5c0.7-17.2,17.1-24.9,20.3-26.3l0.5-0.2c0.1-0.1,0.3-0.1,0.5-0.2c13.1,1.1,29.1,2.7,44.6,4.2
		l0.9,0.1c45,4.3,96,9.1,123.2,9.1c5.4,0,9.1-0.2,11.1-0.6l0.8-0.2l0.7-0.4c3.6-2.1,6.1-5.5,7-9.5c1.1-4.1,0.5-8.3-1.6-11.9
		c-3-5.1-8.3-8-14.6-7.8h0c-14-0.3-165.9-12.8-190-16l-0.4,0c-4.9-1.1-18.4-5.8-16.8-23.6c0.9-8.9,3.4-15.5,7.1-18.4
		c2.9-2.2,6.5-2.5,8-2.5c0.2,0,0.4,0,0.5,0c0.2,0,0.4,0,0.6,0.1l166,15.9c0.8,0.2,1.4,0.2,1.9,0.2c8.2,0,14.8-6.2,15.4-14.5
		c0.3-4.1-1-8.1-3.6-11.3c-2.7-3.2-6.5-5.2-10.8-5.5l-163.9-15.7l-0.3,0c-1.6-0.3-3.7-0.4-5.7-0.4c-7,0-17.2,1.5-26.6,8.6
		c-11.5,8.4-18.1,22.1-19.7,40.7C251.2,399.3,268.8,414,280.3,420.3z"/>
</g>
</svg>
