<?xml version="1.0" encoding="utf-8"?>
<!-- Generator: Adobe Illustrator 18.0.0, SVG Export Plug-In . SVG Version: 6.00 Build 0)  -->
<!DOCTYPE svg PUBLIC "-//W3C//DTD SVG 1.1//EN" "http://www.w3.org/Graphics/SVG/1.1/DTD/svg11.dtd">
<svg version="1.1"
	 id="svg2" xmlns:svg="http://www.w3.org/2000/svg" xmlns:cc="http://creativecommons.org/ns#" xmlns:dc="http://purl.org/dc/elements/1.1/" xmlns:rdf="http://www.w3.org/1999/02/22-rdf-syntax-ns#"
	 xmlns="http://www.w3.org/2000/svg" xmlns:xlink="http://www.w3.org/1999/xlink" x="0px" y="0px" viewBox="0 0 612 792"
	 enable-background="new 0 0 612 792" xml:space="preserve">
<g>
	<path fill="#333333" d="M446.2,435.1c-1.9,0-3.9,0.2-5.8,0.5c-45.1,8.7-81.1,14.9-134.4,14.9c-53.5,0-89.4-6.2-134.3-14.9
		c-1.9-0.4-3.8-0.5-5.8-0.5c-4.6,0-11.1,1-16.3,6c-5.5,5.2-8.3,13.6-8.3,24.9c0,30.2,17.4,63.9,46.4,89.9
		c32.3,29,74.3,44.9,118.4,44.9c44,0,86-16,118.3-44.9c29.1-26.1,46.5-59.7,46.5-89.9c0-11.3-2.8-19.7-8.3-24.9
		C457.3,436.1,450.8,435.1,446.2,435.1z"/>
	<path fill="#333333" d="M509.7,190.8c-54.5-54.5-127.1-84.6-204.2-84.6s-149.7,30-204.2,84.6C46.7,245.3,16.7,317.8,16.7,395
		s30,149.7,84.6,204.2c54.5,54.5,127.1,84.6,204.2,84.6s149.7-30,204.2-84.6s84.6-127.1,84.6-204.2S564.3,245.3,509.7,190.8z
		 M305.5,653.8c-69.1,0-134.1-26.9-183-75.8c-48.9-48.8-75.8-113.8-75.8-183c0-69.2,26.9-134.2,75.8-183
		c48.8-48.9,113.8-75.8,183-75.8c69.2,0,134.2,26.9,183,75.8c48.9,48.9,75.8,113.9,75.8,183s-26.9,134.1-75.8,183
		C439.7,626.9,374.7,653.8,305.5,653.8z"/>
	<path fill="#333333" d="M201.3,397.2c22.3,0,40.3-25.3,40.3-56.4s-18-56.4-40.3-56.4c-22.3,0-40.3,25.3-40.3,56.4
		C161,372,179,397.2,201.3,397.2z"/>
	<path fill="#333333" d="M410.6,397.2c22.3,0,40.3-25.3,40.3-56.4s-18-56.4-40.3-56.4s-40.3,25.3-40.3,56.4
		C370.3,372,388.3,397.2,410.6,397.2z"/>
</g>
</svg>
