<?xml version="1.0" encoding="utf-8"?>
<!-- Generator: Adobe Illustrator 18.0.0, SVG Export Plug-In . SVG Version: 6.00 Build 0)  -->
<!DOCTYPE svg PUBLIC "-//W3C//DTD SVG 1.1//EN" "http://www.w3.org/Graphics/SVG/1.1/DTD/svg11.dtd">
<svg version="1.1"
	 id="svg2" xmlns:svg="http://www.w3.org/2000/svg" xmlns:cc="http://creativecommons.org/ns#" xmlns:dc="http://purl.org/dc/elements/1.1/" xmlns:rdf="http://www.w3.org/1999/02/22-rdf-syntax-ns#"
	 xmlns="http://www.w3.org/2000/svg" xmlns:xlink="http://www.w3.org/1999/xlink" x="0px" y="0px" viewBox="0 0 612 792"
	 enable-background="new 0 0 612 792" xml:space="preserve">
<g>
	<path fill="#333333" d="M510.2,191.8c-54.5-54.5-127.1-84.6-204.2-84.6s-149.7,30-204.2,84.6C47.2,246.3,17.2,318.8,17.2,396
		s30,149.7,84.6,204.2c54.5,54.5,127.1,84.6,204.2,84.6s149.7-30,204.2-84.6s84.6-127.1,84.6-204.2S564.8,246.3,510.2,191.8z
		 M306,654.8c-69.1,0-134.1-26.9-183-75.8c-48.9-48.8-75.8-113.8-75.8-183c0-69.2,26.9-134.2,75.8-183
		c48.8-48.9,113.8-75.8,183-75.8c69.2,0,134.2,26.9,183,75.8c48.9,48.8,75.8,113.8,75.8,183c0,69.1-26.9,134.1-75.8,183
		C440.2,627.9,375.2,654.8,306,654.8z"/>
	<path fill="#333333" d="M241.6,371.8c0-31.1-18-56.4-40.3-56.4c-22.3,0-40.3,25.3-40.3,56.4c0,31.2,18,56.4,40.3,56.4
		C223.6,428.2,241.6,402.9,241.6,371.8z"/>
	<path fill="#333333" d="M410.6,315.4c-22.3,0-40.3,25.3-40.3,56.4c0,31.2,18,56.4,40.3,56.4s40.3-25.3,40.3-56.4
		S432.9,315.4,410.6,315.4z"/>
	<path fill="#333333" d="M357.7,478.7c-31.2,0-64.4,6-90.9,16.4c-33.7,13.3-56.8,33.4-66.8,58.3c-1.7,4.2-0.3,9,3.3,11.7
		c1.8,1.3,3.9,2,6,2c2.2,0,4.4-0.7,6.3-2.2c50.9-40.8,124.3-40.8,163.8-40.8l6,0c10.5,0,19.1-0.1,25.5-0.8
		c14.7-1.8,17.9-8.8,17.9-14.5C428.8,489.9,402.2,478.7,357.7,478.7z"/>
</g>
</svg>
