<?xml version="1.0" encoding="utf-8"?>
<!-- Generator: Adobe Illustrator 18.0.0, SVG Export Plug-In . SVG Version: 6.00 Build 0)  -->
<!DOCTYPE svg PUBLIC "-//W3C//DTD SVG 1.1//EN" "http://www.w3.org/Graphics/SVG/1.1/DTD/svg11.dtd">
<svg version="1.1"
	 id="svg2" xmlns:svg="http://www.w3.org/2000/svg" xmlns:cc="http://creativecommons.org/ns#" xmlns:dc="http://purl.org/dc/elements/1.1/" xmlns:rdf="http://www.w3.org/1999/02/22-rdf-syntax-ns#"
	 xmlns="http://www.w3.org/2000/svg" xmlns:xlink="http://www.w3.org/1999/xlink" x="0px" y="0px" viewBox="0 0 612 792"
	 enable-background="new 0 0 612 792" xml:space="preserve">
<path fill="#333333" d="M435.2,121.3c-28.3,0-56.4,6.9-81.4,20.1c-17.6,9.3-34,22-47.7,36.8c-33.3-36.2-79.9-56.9-129.1-56.9
	C80.3,121.3,1.6,200,1.6,296.7c0,12.8,1.6,26,4.6,39.3c10.7,65.8,50.9,138.8,113.2,205.4c55.6,59.5,123.2,107.5,181,128.5l3.4,1.2
	c0.7,0.2,1.4,0.4,2.2,0.4s1.5-0.1,2.2-0.4l3.5-1.2c57.6-20.9,125.3-69,180.9-128.5c62.3-66.5,102.5-139.3,113.3-205.3
	c3.1-13,4.7-26.3,4.7-39.4C610.6,200,531.9,121.3,435.2,121.3z M577.5,296.6c0,10.9-1.3,21.4-3.9,32.2l-0.2,0.8
	c0,0.2-0.1,0.4-0.1,0.5c-9.6,59.6-46.9,126.6-104.9,188.6c-50.1,53.6-110.7,97.5-162.5,117.9c-51.8-20.4-112.3-64.3-162.5-117.9
	c-58.1-62-95.3-129-104.8-188.5l-0.1-0.6c0-0.2-0.1-0.3-0.1-0.5c-2.5-11.3-3.8-22.2-3.8-32.4c0-78.5,63.9-142.4,142.4-142.4
	c45.7,0,88.9,22.2,115.6,59.5l8.1,11.3c1.2,1.7,3.2,2.7,5.3,2.7s4.1-1,5.3-2.7l8.1-11.3c26.8-37.3,70-59.6,115.7-59.6
	C513.6,154.2,577.5,218,577.5,296.6z"/>
</svg>
