<?xml version="1.0" encoding="utf-8"?>
<!-- Generator: Adobe Illustrator 18.0.0, SVG Export Plug-In . SVG Version: 6.00 Build 0)  -->
<!DOCTYPE svg PUBLIC "-//W3C//DTD SVG 1.1//EN" "http://www.w3.org/Graphics/SVG/1.1/DTD/svg11.dtd">
<svg version="1.1"
	 id="svg2" xmlns:svg="http://www.w3.org/2000/svg" xmlns:cc="http://creativecommons.org/ns#" xmlns:dc="http://purl.org/dc/elements/1.1/" xmlns:rdf="http://www.w3.org/1999/02/22-rdf-syntax-ns#"
	 xmlns="http://www.w3.org/2000/svg" xmlns:xlink="http://www.w3.org/1999/xlink" x="0px" y="0px" viewBox="0 0 612 792"
	 enable-background="new 0 0 612 792" xml:space="preserve">
<g>
	<path fill="#333333" d="M595.7,368.7c1.2-8.8-4.9-16.9-13.7-18.2c-52.6-7.5-98.3,1.3-133.3,13.7c-14.8-19.5-32.2-39.3-51.4-58.4
		c-13.8-13.8-27.9-26.6-42.1-38.3c4.1-5.2,6.6-11.3,7.3-17.5c2.1-19.2-13-40.5-45.8-44c-12.8-1.4-17.4-6.6-17.2-8.6
		c0.1-0.5,0.7-1.5,2.4-2.5c2.1-1.3,7-3.2,16.3-2.2c32.9,3.5,52.1-14.1,54.2-33.3c2.1-19.2-13-40.5-45.8-44
		c-8.8-0.9-16.7,5.5-17.7,14.3c-0.9,8.8,5.5,16.7,14.3,17.7c12.8,1.4,17.4,6.7,17.2,8.6c-0.1,0.5-0.7,1.5-2.4,2.5
		c-2.1,1.3-7,3.2-16.3,2.2c-32.8-3.5-52,14.1-54.1,33.3c-0.7,6.5,0.5,13,3.5,18.9c-14.8-6.5-30.5-11.3-44.3-11.3
		c-12.1,0-21.8,3.5-29,10.3c-1.8,1.3-3.5,2.7-5.1,4.3c-2.5,2.5-4.6,5.4-6.3,8.5c-0.5,0.8-0.9,1.5-1.2,2.1l-0.1,0.1L4.5,633.7
		l-0.1,0.2c-0.6,1.4-0.9,2.7-1.1,3.9c-1.6,6.5-2.8,23,18.2,44.1c12.2,12.1,25.8,19,37.3,19c2.6,0,5-0.3,7.5-1.1
		c1-0.2,2.1-0.5,3.4-1.1l406.8-180.5c1-0.4,1.8-0.9,2.4-1.3c3.1-1.7,5.8-3.7,8.2-6l0.3-0.3c2.4-2.4,4.3-5,6-7.7
		c2.3-2.9,4.1-6.1,5.4-9.5c0.1,0.2,0.1,0.4,0.2,0.7c2.5,8.5,11.3,13.5,19.9,11.1c12.4-3.5,18.7-0.4,19.2,1.5
		c0.5,1.9-3.2,7.8-15.6,11.3c-31.8,9-43.1,32.5-37.9,51.1c5.2,18.6,27.1,32.8,58.9,23.8c12.4-3.5,18.7-0.4,19.2,1.5
		c0.5,1.9-3.2,7.8-15.6,11.3c-31.8,8.9-43.1,32.4-37.9,51c5.2,18.6,27.2,32.7,58.9,23.8c8.6-2.4,13.6-11.3,11.2-19.9
		c-2.4-8.5-11.3-13.5-19.9-11.1c-12.4,3.5-18.7,0.4-19.2-1.5c-0.5-1.9,3.2-7.8,15.6-11.3c31.7-9,43.1-32.5,37.8-51.1
		c-5.2-18.5-27.1-32.7-58.9-23.8c-12.4,3.5-18.7,0.4-19.2-1.5c-0.5-1.9,3.2-7.8,15.6-11.3c31.7-8.9,43-32.4,37.8-51
		s-27.1-32.8-58.9-23.8c-3.5,1-6.4,3.1-8.4,5.7c1.2-19.7-7.9-42.8-17.7-61.7c-4.4-8.6-9.6-17.4-15.5-26.4
		c29.7-9.4,67.1-15.4,109.2-9.4C586.4,383.7,594.4,377.5,595.7,368.7z M460.6,487.3c-13.3,0-34.8-8.3-59-22.8
		c-28.9-17.3-60.1-42.4-90.4-72.7c-30.3-30.2-55.4-61.5-72.8-90.4c-14.5-24.1-22.8-45.6-22.8-59c0-3,0.5-5.5,1.3-7.1
		c2-0.8,4.7-1.2,7.8-1.2c13.9,0,34,7.3,57.2,20.7c-14.5,5.9-22.8,17.5-24.2,29.8c-1.2,11,3.1,21.9,11.8,30c8.3,7.7,20,12.6,34,14.1
		c4.4,0.4,8.6-0.9,11.8-3.5c3.2-2.6,5.5-6.4,5.8-11c1-8.8-5.5-16.7-14.3-17.7c-12.8-1.4-17.4-6.7-17.2-8.6c0.1-0.5,0.7-1.5,2.4-2.5
		c2.1-1.3,7-3.2,16.3-2.2c5.6,0.6,10.7,0.6,15.5,0c17.3,13.4,34.8,28.7,51.1,45.1c15.9,16,30.4,32.4,43.1,48.6
		c-25.4,12.3-40.4,24.1-41.8,25.2c-6.9,5.5-8.1,15.6-2.5,22.6c3.2,3.9,7.9,6,12.6,6c3.6,0,7.1-1.2,10.1-3.5
		c0.3-0.2,15.3-11.9,40.9-23.6c7,10.6,13.1,20.9,18,30.9c9.2,18.3,16.4,40.6,12.8,51.1C466.8,486.7,464,487.3,460.6,487.3z
		 M33,643.4l161.4-363.3c5.8,14.7,13.7,28.9,20.8,40.4c18.6,30.1,44.5,62.1,74.9,92.5c30.2,30.2,62.2,56.1,92.5,74.9
		c11.6,7.2,25.9,15.2,40.7,21L59.9,670.2c-0.5,0.1-1.1,0.3-1.7,0.5c-2.3-0.5-8.5-3.2-15.5-10.2c-7.4-7.4-9.7-13.5-10.2-15.6
		C32.8,644.5,32.9,644,33,643.4z M330.7,246.7c0,0.4-0.2,0.8-0.6,1.2c-4.5-3.2-8.9-6.4-13.4-9.3C327,240.4,330.9,245,330.7,246.7z"
		/>
	<path fill="#333333" d="M65.8,205.6c8.8-0.7,15.5-8.4,14.8-17.3c0-0.4-1.4-32.3,13.7-33.4c7.9-0.6,11.3,2.2,13.6,5.1
		c20.3,25.3,3.7,122.2-14.5,183c-2.6,8.6,2.3,17.5,10.8,20.1c1.5,0.5,3.1,0.7,4.6,0.7c7,0,13.3-4.5,15.4-11.5
		c8.1-27.2,46.9-165,8.7-212.5c-10-12.4-24.1-18.3-41.1-17c-38,2.9-45,45.7-43.3,67.9C49.2,199.6,56.8,206.1,65.8,205.6z"/>
	<path fill="#333333" d="M426.7,283.3c13.4,0,24.2-10.9,24.2-24.2c0-13.3-10.8-24.2-24.2-24.2c-13.4,0-24.2,10.9-24.2,24.2
		C402.5,272.5,413.4,283.3,426.7,283.3z"/>
	<path fill="#333333" d="M515.3,420.2c0,13.4,10.8,24.2,24.2,24.2s24.2-10.9,24.2-24.2c0-13.4-10.8-24.2-24.2-24.2
		S515.3,406.9,515.3,420.2z"/>
	<path fill="#333333" d="M394.5,589.2c-13.4,0-24.2,10.9-24.2,24.2c0,13.4,10.8,24.2,24.2,24.2s24.2-10.9,24.2-24.2
		C418.7,600.1,407.9,589.2,394.5,589.2z"/>
	<path fill="#333333" d="M467.1,202.7c17.8,0,32.2-14.4,32.2-32.2s-14.4-32.2-32.2-32.2c-17.8,0-32.2,14.4-32.2,32.2
		S449.3,202.7,467.1,202.7z"/>
	<path fill="#333333" d="M539.5,267.2c13.4,0,24.2-10.9,24.2-24.2s-10.8-24.2-24.2-24.2s-24.2,10.8-24.2,24.2
		C515.3,256.4,526.1,267.2,539.5,267.2z"/>
	<path fill="#333333" d="M467,307.4c0,13.4,10.9,24.2,24.2,24.2c13.4,0,24.2-10.9,24.2-24.2s-10.9-24.1-24.2-24.2
		C477.8,283.2,467,294.1,467,307.4z"/>
	<path fill="#333333" d="M136.9,508.8c13.4,0,24.2-10.9,24.2-24.2c0-13.4-10.8-24.2-24.2-24.2c-13.4,0-24.2,10.8-24.2,24.2
		S123.5,508.8,136.9,508.8z"/>
</g>
</svg>
